<svg width="24" height="20" viewBox="0 0 24 20" fill="none" xmlns="http://www.w3.org/2000/svg">
<path d="M24 11.3185C24 10.5246 23.5656 9.80938 22.8663 9.45181C22.1532 9.08713 21.2298 8.9022 20.1219 8.9022H8.07858C7.99186 8.46945 7.79972 8.07627 7.51148 7.75588L5.80359 5.8573C5.38097 5.38747 4.77366 5.10219 4.09359 5.0541L3.7868 5.03239C3.62972 5.0211 3.47011 5.04327 3.31692 5.09464V4.091C3.31692 3.73944 3.16884 3.42196 2.93212 3.197C3.17217 2.90928 3.31692 2.53935 3.31692 2.13622C3.31692 1.22174 2.57292 0.477783 1.65848 0.477783C0.744047 0.477783 0 1.22178 0 2.13627C0 2.53944 0.14475 2.90933 0.384797 3.19705C0.148078 3.42205 0 3.73949 0 4.09105V19.0531C0 19.312 0.209859 19.5219 0.46875 19.5219H2.08664C2.32842 19.5219 2.53055 19.338 2.55333 19.0972C2.60916 18.5069 2.9213 16.8858 3.69464 16.1588H4.94981C5.2087 16.1588 5.41856 15.9489 5.41856 15.6901C5.41856 15.4312 5.2087 15.2213 4.94981 15.2213L0.937453 15.2213V11.0946L7.19414 11.0945V12.316C7.19414 13.0387 7.78209 13.6267 8.50486 13.6267H8.50495H22.6893C22.8151 13.6267 22.9418 13.6084 23.0625 13.5726V15.2213H20.4794C20.479 15.2213 20.4786 15.2214 20.4782 15.2214H9.07434C8.81545 15.2214 8.60559 15.4313 8.60559 15.6901C8.60559 15.949 8.81545 16.1589 9.07434 16.1589H20.3054C21.0757 16.8838 21.3898 18.5065 21.4467 19.0973C21.4695 19.338 21.6716 19.5219 21.9134 19.5219H23.5312C23.7901 19.5219 24 19.312 24 19.0532V11.3185ZM3.31805 6.62731C3.32503 6.42758 3.29766 6.22119 3.46223 6.07433C3.6278 5.92658 3.82641 5.975 4.02741 5.98925C4.47028 6.02061 4.84345 6.19175 5.10656 6.4843L6.81445 8.38292C7.0913 8.69061 7.22409 9.11952 7.18833 9.59047C7.17459 9.77178 7.17788 9.93252 7.02506 10.0604C6.88542 10.1773 6.73388 10.1555 6.56578 10.1505C6.09366 10.1364 5.6812 9.9591 5.40436 9.65136L3.69647 7.75278C3.42023 7.44561 3.3038 7.03513 3.31805 6.62731ZM0.9375 10.157V4.09105C0.9375 3.92764 1.07044 3.79471 1.23384 3.79471H2.08298C2.24639 3.79471 2.37933 3.92764 2.37933 4.09105V10.157H0.9375V10.157ZM3.31687 8.73247L4.59834 10.157H3.31687V8.73247ZM1.65844 1.41533C2.05594 1.41533 2.37937 1.73872 2.37937 2.13627C2.37937 2.53381 2.05598 2.85721 1.65844 2.85721C1.26089 2.85721 0.9375 2.53381 0.9375 2.13627C0.9375 1.73872 1.26089 1.41533 1.65844 1.41533ZM1.67822 18.5844H0.9375V16.1589H2.50931C2.00203 16.9893 1.77262 18.0166 1.67822 18.5844ZM8.50491 12.6892C8.29917 12.6892 8.13178 12.5218 8.13178 12.3161L8.13159 9.8397H20.1219C21.08 9.8397 21.8597 9.99003 22.4394 10.2865C22.8238 10.483 23.0625 10.8784 23.0625 11.3185V12.3143C23.0625 12.3149 23.0624 12.3155 23.0624 12.3162C23.0624 12.5219 22.895 12.6893 22.6893 12.6893H8.50491V12.6892ZM22.3218 18.5844C22.2274 18.0166 21.998 16.9894 21.4907 16.1589H23.0625V18.5844H22.3218Z" fill="#2869CA"/>
</svg>
