<svg width="24" height="24" viewBox="0 0 24 24" fill="currentColor" xmlns="http://www.w3.org/2000/svg">
<path d="M12.8261 2.74411C12.8261 2.35043 12.8261 2.35043 12.4251 2.35043C11.9801 2.35043 11.5351 2.3609 11.0901 2.34624C10.8608 2.33891 10.7362 2.3944 10.7802 2.64674C10.7813 2.65511 10.7802 2.66454 10.7802 2.67291C10.7865 2.82892 10.7415 3.02053 10.8169 3.12837C10.8723 3.20899 11.0849 3.17967 11.2273 3.20061C11.6524 3.26344 11.9728 3.60791 11.9791 4.04452C11.9895 4.79315 11.9895 5.54282 11.9791 6.29144C11.9717 6.79192 11.6147 7.15524 11.1132 7.14268C10.82 7.13535 10.7697 7.24529 10.775 7.5039C10.7907 8.16563 10.7781 8.82735 10.7813 9.48907C10.7823 9.72675 10.7184 9.9372 10.4148 9.96652C10.0389 9.95081 10.0138 9.6744 10.0148 9.50268C10.0159 8.82316 10.0075 8.14364 10.0201 7.46516C10.0243 7.23796 9.97713 7.14268 9.72061 7.14582C9.15312 7.15315 8.81598 6.79925 8.81284 6.22967C8.8097 5.52397 8.8097 4.81932 8.81284 4.11362C8.81598 3.55765 9.16987 3.19433 9.73004 3.20061C9.96666 3.20376 10.0274 3.12732 10.019 2.90221C9.99493 2.26457 10.1112 2.3609 9.4599 2.35252C9.18034 2.34833 8.90184 2.35671 8.62228 2.35043C8.25058 2.341 8.015 2.1117 8.01919 1.77247C8.02233 1.43532 8.2621 1.20498 8.6338 1.20393C9.92478 1.19974 11.2168 1.19555 12.5078 1.20812C12.7622 1.21021 12.8575 1.13483 12.8292 0.884587C12.8156 0.764178 12.8209 0.640629 12.8334 0.519174C12.8659 0.215535 13.0962 0.00717636 13.3936 0.00298824C13.6951 -0.00119988 13.9485 0.219723 13.9778 0.525456C13.9914 0.67204 13.9925 0.821765 13.9799 0.969396C13.9653 1.15681 14.0469 1.21754 14.2249 1.20498C14.3642 1.19451 14.5045 1.1966 14.6437 1.20707C14.9547 1.2322 15.1809 1.47302 15.184 1.77351C15.1882 2.07401 14.9673 2.31483 14.6553 2.34938C14.6123 2.35462 14.5684 2.35252 14.5244 2.35357C13.9831 2.36299 13.9831 2.36299 13.9831 2.89069C13.9831 5.27687 13.9119 11.2502 13.9726 11.8575C14.0291 12.4249 13.915 12.3297 14.4448 12.3632C15.7243 12.4427 17.0048 12.5296 18.2853 12.537C19.3637 12.5433 20.4129 12.2962 21.4316 11.9328C22.3855 11.5926 23.3875 11.9203 23.778 12.739C23.912 13.0197 23.9822 13.3568 23.9864 13.6699C24.0084 15.1504 23.9937 16.6309 24.001 18.1103C24.0021 18.3051 23.9403 18.3647 23.7466 18.3647C20.0642 18.3595 16.3829 18.3616 12.7005 18.3585C12.2314 18.3585 12.0167 18.1313 12.0157 17.6632C12.0147 15.9388 12.0157 14.2143 12.0157 12.4909C12.0157 12.4071 12.0157 12.3223 12.0157 12.2072C12.2345 12.2197 12.4167 12.2218 12.5958 12.2438C12.7696 12.2647 12.8313 12.2019 12.8292 12.0302C12.8251 11.8522 12.8251 5.10411 12.8261 2.74411ZM10.3928 5.59308C10.6012 5.59308 10.8106 5.58784 11.0189 5.59517C11.1634 5.60041 11.2221 5.54596 11.22 5.39938C11.2137 5.02559 11.2189 4.65284 11.2179 4.27905C11.2179 4.06755 11.1142 3.95762 10.8975 3.95866C10.5666 3.95971 10.2358 3.96076 9.90594 3.95866C9.6913 3.95657 9.58031 4.05394 9.58031 4.27068C9.58031 4.64447 9.58555 5.01721 9.57717 5.391C9.57298 5.55538 9.64104 5.6025 9.7939 5.59622C9.99179 5.58575 10.1928 5.59308 10.3928 5.59308Z" fill="white"/>
<path d="M2.3558 14.4016C2.35371 14.5639 2.40711 14.6529 2.55997 14.7167C4.13575 15.3764 5.70734 16.0454 7.28312 16.7029C7.43075 16.7647 7.60247 16.7951 7.76266 16.7961C8.80027 16.8045 9.83892 16.8066 10.8765 16.7961C11.1037 16.794 11.1885 16.8558 11.1749 17.0903C11.1561 17.4024 11.1686 17.7165 11.1707 18.0306C11.176 18.8033 11.5728 19.1949 12.3581 19.1949C16.1096 19.1959 19.8611 19.1949 23.6115 19.1959C23.9948 19.1959 23.9958 19.1959 23.9958 19.576C23.9958 20.4471 23.9979 21.3172 23.9948 22.1883C23.9927 22.8364 23.6775 23.1495 23.0283 23.1537C22.8451 23.1547 22.6619 23.16 22.4787 23.1506C21.9834 23.1275 21.6494 22.7893 21.6389 22.2951C21.6306 21.8774 21.6222 21.4586 21.6421 21.0418C21.6536 20.8021 21.5625 20.7267 21.3426 20.7549C21.2997 20.7602 21.2557 20.756 21.2118 20.756C15.1055 20.756 8.99816 20.756 2.89188 20.756C2.35895 20.756 2.35895 20.757 2.35895 21.3005C2.35895 21.6229 2.36313 21.9444 2.35685 22.2669C2.34743 22.805 2.00924 23.1401 1.46688 23.1526C1.26585 23.1579 1.06586 23.1579 0.864834 23.1516C0.344461 23.1348 0.019882 22.8124 0.00208255 22.2962C-0.00315259 22.1485 -1.15065e-05 21.9999 -1.15065e-05 21.8522C-1.15065e-05 17.1333 -1.15065e-05 12.4143 -1.15065e-05 7.69536C-1.15065e-05 7.0106 0.340273 6.55305 0.934985 6.4295C1.64801 6.28082 2.3223 6.79491 2.35476 7.52155C2.37046 7.83252 2.36313 13.6268 2.3558 14.4016Z" fill="white"/>
<path d="M11.1414 15.941C10.0944 15.941 9.07041 15.941 8.04223 15.941C7.92706 14.7254 8.04013 13.603 9.05994 12.7737C9.60754 12.3287 10.241 12.1193 10.9477 12.1204C11.0933 12.1204 11.1728 12.1528 11.1728 12.3224C11.1676 13.4888 11.1697 14.6542 11.1676 15.8206C11.1676 15.853 11.154 15.8865 11.1414 15.941Z" fill="white"/>
<path d="M10.3928 5.59301C10.1928 5.59301 9.99178 5.58673 9.79284 5.5951C9.63998 5.60139 9.57192 5.55427 9.57611 5.38989C9.58553 5.01714 9.57925 4.64336 9.57925 4.26957C9.57925 4.05283 9.69128 3.95546 9.90488 3.95755C10.2357 3.96069 10.5666 3.95965 10.8964 3.95755C11.1131 3.95651 11.2168 4.06644 11.2168 4.27794C11.2179 4.65173 11.2126 5.02447 11.2189 5.39826C11.221 5.54589 11.1624 5.59929 11.0179 5.59406C10.8106 5.58778 10.6012 5.59301 10.3928 5.59301Z" fill="white"/>
<path d="M5.38277 14.5566C6.63759 14.5566 7.65482 13.5393 7.65482 12.2845C7.65482 11.0297 6.63759 10.0125 5.38277 10.0125C4.12795 10.0125 3.11072 11.0297 3.11072 12.2845C3.11072 13.5393 4.12795 14.5566 5.38277 14.5566Z" fill="white"/>
</svg>
