<svg width="11" height="12" viewBox="0 0 11 12" fill="none" xmlns="http://www.w3.org/2000/svg">
<g clip-path="url(#clip0)">
<path fill-rule="evenodd" clip-rule="evenodd" d="M9.62229 0.709684H1.37461C1.19233 0.709684 1.01751 0.784454 0.888614 0.917545C0.759719 1.05064 0.687306 1.23115 0.687306 1.41937V9.93557C0.687306 10.1238 0.759719 10.3043 0.888614 10.4374C1.01751 10.5705 1.19233 10.6453 1.37461 10.6453H9.62229C9.80458 10.6453 9.97939 10.5705 10.1083 10.4374C10.2372 10.3043 10.3096 10.1238 10.3096 9.93557V1.41937C10.3096 1.23115 10.2372 1.05064 10.1083 0.917545C9.97939 0.784454 9.80458 0.709684 9.62229 0.709684ZM1.37461 0C1.01004 0 0.660405 0.14954 0.402615 0.415723C0.144825 0.681906 0 1.04293 0 1.41937L0 9.93557C0 10.312 0.144825 10.673 0.402615 10.9392C0.660405 11.2054 1.01004 11.3549 1.37461 11.3549H9.62229C9.98686 11.3549 10.3365 11.2054 10.5943 10.9392C10.8521 10.673 10.9969 10.312 10.9969 9.93557V1.41937C10.9969 1.04293 10.8521 0.681906 10.5943 0.415723C10.3365 0.14954 9.98686 0 9.62229 0L1.37461 0Z" fill="#282828"/>
<path fill-rule="evenodd" clip-rule="evenodd" d="M2.40558 5.67735C2.40558 5.58324 2.44178 5.49299 2.50623 5.42644C2.57068 5.35989 2.65809 5.32251 2.74923 5.32251H8.24768C8.33883 5.32251 8.42624 5.35989 8.49068 5.42644C8.55513 5.49299 8.59134 5.58324 8.59134 5.67735C8.59134 5.77146 8.55513 5.86172 8.49068 5.92826C8.42624 5.99481 8.33883 6.03219 8.24768 6.03219H2.74923C2.65809 6.03219 2.57068 5.99481 2.50623 5.92826C2.44178 5.86172 2.40558 5.77146 2.40558 5.67735Z" fill="#282828"/>
</g>
<defs>
<clipPath id="clip0">
<rect width="10.9969" height="11.3549" fill="white"/>
</clipPath>
</defs>
</svg>
