<svg width="21" height="21" viewBox="0 0 21 21" fill="none" xmlns="http://www.w3.org/2000/svg">
<path d="M17.9238 11.0742C18.2636 11.0742 18.5391 10.7988 18.5391 10.459C18.5391 10.1192 18.2636 9.84375 17.9238 9.84375C17.584 9.84375 17.3086 10.1192 17.3086 10.459C17.3086 10.7988 17.584 11.0742 17.9238 11.0742Z" fill="#FEA250"/>
<path d="M21 10.459C21 9.48987 20.5363 8.57788 19.7695 8.00088V1.8457C19.7695 0.827982 18.9415 0 17.9238 0C16.9061 0 16.0781 0.827982 16.0781 1.8457V8.00088C15.3113 8.57784 14.8477 9.48987 14.8477 10.459C14.8477 12.1552 16.2276 13.5352 17.9238 13.5352C19.62 13.5352 21 12.1552 21 10.459ZM17.3086 1.8457C17.3086 1.50646 17.5846 1.23047 17.9238 1.23047C18.2631 1.23047 18.5391 1.50646 18.5391 1.8457V2.46094H17.3086V1.8457ZM17.9238 12.3047C16.9061 12.3047 16.0781 11.4767 16.0781 10.459C16.0781 9.80413 16.432 9.19234 17.0018 8.86233C17.1917 8.75232 17.3086 8.54946 17.3086 8.32999V3.69141H18.5391V8.32999C18.5391 8.5495 18.656 8.75237 18.8459 8.86233C19.4156 9.19234 19.7695 9.80413 19.7695 10.459C19.7695 11.4767 18.9416 12.3047 17.9238 12.3047Z" fill="#FEA250"/>
<path d="M1.08788 13.724L1.9082 12.7396C2.0983 12.5114 2.0983 12.18 1.9082 11.9519L1.41609 11.3613L1.9082 10.7708C2.0983 10.5427 2.0983 10.2112 1.9082 9.98308L1.41609 9.39258L1.9082 8.80208C2.1257 8.54105 2.09043 8.15309 1.8294 7.93558C1.56838 7.71807 1.18041 7.75335 0.962909 8.01437L0.142596 8.99875C-0.0475112 9.22692 -0.0475112 9.55832 0.142596 9.78645L0.634702 10.377L0.142596 10.9675C-0.0475112 11.1956 -0.0475112 11.527 0.142596 11.7552L0.634702 12.3457L0.142596 12.9362C-0.0749096 13.1972 -0.0396362 13.5852 0.221387 13.8027C0.482411 14.0202 0.870336 13.985 1.08788 13.724Z" fill="#FEA250"/>
<path d="M20.0371 17.0378L19.2168 16.0534C18.9993 15.7924 18.6113 15.7571 18.3503 15.9746C18.0893 16.1921 18.054 16.5801 18.2715 16.8411L18.7637 17.4316L18.2715 18.0221C18.0814 18.2503 18.0814 18.5817 18.2715 18.8099L18.7637 19.4004L18.2715 19.9909C18.054 20.2519 18.0893 20.6399 18.3503 20.8574C18.6114 21.0749 18.9993 21.0396 19.2168 20.7786L20.0371 19.7942C20.2273 19.5661 20.2273 19.2346 20.0371 19.0065L19.545 18.416L20.0371 17.8255C20.2273 17.5973 20.2273 17.2659 20.0371 17.0378Z" fill="#FEA250"/>
<path d="M14.0724 13.6992L11.1563 12.866V11.9937C12.0964 11.3239 12.7277 10.2475 12.7915 9.0234H13.002C14.0197 9.0234 14.8477 8.19541 14.8477 7.17769C14.8477 6.53912 14.5216 5.9754 14.0273 5.64387V3.07617C14.0273 1.37997 12.6474 0 10.9512 0H9.31055C8.64933 0 7.99382 0.21849 7.46484 0.615234L6.64453 1.23047H6.0293C4.78542 1.23047 3.77344 2.24245 3.77344 3.48633V5.64391C3.2792 5.97544 2.95313 6.53916 2.95313 7.17773C2.95313 8.19545 3.78111 9.02344 4.79883 9.02344H5.00928C5.07306 10.2475 5.70441 11.3239 6.64453 11.9937V12.866L3.72836 13.6992C2.9076 13.9337 2.20209 14.4179 1.68804 15.0994C1.17403 15.7808 0.902344 16.5921 0.902344 17.4457V20.3848C0.902344 20.7245 1.1778 21 1.51758 21H16.2832C16.623 21 16.8984 20.7245 16.8984 20.3848V17.4457C16.8984 16.5921 16.6268 15.7808 16.1127 15.0993C15.5987 14.4179 14.8932 13.9337 14.0724 13.6992ZM13.6172 7.17773C13.6172 7.51697 13.3412 7.79297 13.002 7.79297H12.7969V6.5625H13.002C13.3412 6.5625 13.6172 6.83849 13.6172 7.17773ZM5.00391 7.79297H4.79883C4.45959 7.79297 4.18359 7.51697 4.18359 7.17773C4.18359 6.83849 4.45959 6.5625 4.79883 6.5625H5.00391V7.79297ZM5.61914 5.33203H5.00391V3.48633C5.00391 2.92093 5.4639 2.46094 6.0293 2.46094H6.84961C6.98271 2.46094 7.11223 2.41775 7.21875 2.33789L8.20313 1.59961C8.5205 1.36155 8.9138 1.23047 9.31055 1.23047H10.9512C11.9689 1.23047 12.7969 2.05845 12.7969 3.07617V5.33203H12.1816H10.9512C9.85966 5.33203 8.81705 4.81072 8.16211 3.9375C8.02725 3.75769 7.8054 3.66581 7.58264 3.6976C7.36017 3.72947 7.17277 3.88016 7.09386 4.09057L6.98266 4.38707C6.77074 4.95227 6.22277 5.33203 5.61914 5.33203ZM6.23438 8.81836V6.49023C6.88554 6.33536 7.46066 5.94005 7.83866 5.38818C8.69187 6.13495 9.80155 6.5625 10.9512 6.5625H11.5664V8.81836C11.5664 10.2884 10.3704 11.4844 8.90039 11.4844C7.43035 11.4844 6.23438 10.2884 6.23438 8.81836ZM8.28516 19.7695H2.13281V17.4457C2.13281 16.2617 2.92794 15.2076 4.06645 14.8823L6.78222 14.1064C7.02971 14.7795 7.58965 15.3025 8.28516 15.5V19.7695ZM7.875 13.3301V12.5776C8.20185 12.6669 8.54561 12.7148 8.90039 12.7148C9.25518 12.7148 9.59893 12.6669 9.92578 12.5776V13.3301C9.92578 13.8955 9.46579 14.3555 8.90039 14.3555C8.33499 14.3555 7.875 13.8955 7.875 13.3301ZM15.668 19.7695H9.51563V15.5C10.2111 15.3025 10.7711 14.7795 11.0186 14.1064L13.7343 14.8823C14.8729 15.2076 15.668 16.2617 15.668 17.4457V19.7695Z" fill="#FEA250"/>
</svg>
