<svg width="16" height="16" viewBox="0 0 16 16" fill="none" xmlns="http://www.w3.org/2000/svg">
<path d="M8 0C3.5888 0 0 3.58885 0 8.00005C0 12.4112 3.5888 16 8 16C12.4112 16 16 12.4112 16 8.00005C16 3.58885 12.4112 0 8 0ZM8 14.5455C4.39079 14.5455 1.45455 11.6092 1.45455 8.00005C1.45455 4.39088 4.39079 1.45455 8 1.45455C11.6092 1.45455 14.5455 4.39088 14.5455 8.00005C14.5455 11.6092 11.6092 14.5455 8 14.5455Z" fill="#F43535"/>
<path d="M7.99978 3.39392C7.46518 3.39392 7.03027 3.82912 7.03027 4.36405C7.03027 4.8985 7.46518 5.33331 7.99978 5.33331C8.53437 5.33331 8.96928 4.8985 8.96928 4.36405C8.96928 3.82912 8.53437 3.39392 7.99978 3.39392Z" fill="#F43535"/>
<path d="M8.00022 6.78789C7.59857 6.78789 7.27295 7.11351 7.27295 7.51516V11.8788C7.27295 12.2804 7.59857 12.6061 8.00022 12.6061C8.40187 12.6061 8.7275 12.2804 8.7275 11.8788V7.51516C8.7275 7.11351 8.40187 6.78789 8.00022 6.78789Z" fill="#F43535"/>
</svg>
