<svg width="11" height="12" viewBox="0 0 11 12" fill="none" xmlns="http://www.w3.org/2000/svg">
<g clip-path="url(#clip0)">
<path fill-rule="evenodd" clip-rule="evenodd" d="M5.58514 2.625C5.66859 2.625 5.74862 2.66451 5.80762 2.73484C5.86662 2.80516 5.89977 2.90054 5.89977 3V6C5.89977 6.09946 5.86662 6.19484 5.80762 6.26517C5.74862 6.33549 5.66859 6.375 5.58514 6.375H3.06812C2.98467 6.375 2.90464 6.33549 2.84564 6.26517C2.78663 6.19484 2.75349 6.09946 2.75349 6C2.75349 5.90054 2.78663 5.80516 2.84564 5.73483C2.90464 5.66451 2.98467 5.625 3.06812 5.625H5.27051V3C5.27051 2.90054 5.30366 2.80516 5.36267 2.73484C5.42167 2.66451 5.5017 2.625 5.58514 2.625Z" fill="black"/>
<path fill-rule="evenodd" clip-rule="evenodd" d="M5.27052 6C5.27052 5.90054 5.30366 5.80516 5.36267 5.73484C5.42167 5.66451 5.5017 5.625 5.58514 5.625H8.10217C8.18562 5.625 8.26564 5.66451 8.32465 5.73484C8.38365 5.80516 8.4168 5.90054 8.4168 6C8.4168 6.09946 8.38365 6.19484 8.32465 6.26517C8.26564 6.33549 8.18562 6.375 8.10217 6.375H5.89977V9C5.89977 9.09946 5.86662 9.19484 5.80762 9.26516C5.74862 9.33549 5.66859 9.375 5.58514 9.375C5.5017 9.375 5.42167 9.33549 5.36267 9.26516C5.30366 9.19484 5.27052 9.09946 5.27052 9V6Z" fill="black"/>
<path fill-rule="evenodd" clip-rule="evenodd" d="M9.36068 0.75H1.8096C1.64271 0.75 1.48266 0.829018 1.36465 0.96967C1.24664 1.11032 1.18034 1.30109 1.18034 1.5V10.5C1.18034 10.6989 1.24664 10.8897 1.36465 11.0303C1.48266 11.171 1.64271 11.25 1.8096 11.25H9.36068C9.52757 11.25 9.68763 11.171 9.80564 11.0303C9.92365 10.8897 9.98994 10.6989 9.98994 10.5V1.5C9.98994 1.30109 9.92365 1.11032 9.80564 0.96967C9.68763 0.829018 9.52757 0.75 9.36068 0.75ZM1.8096 0C1.47582 0 1.15571 0.158035 0.919697 0.43934C0.68368 0.720644 0.551086 1.10218 0.551086 1.5L0.551086 10.5C0.551086 10.8978 0.68368 11.2794 0.919697 11.5607C1.15571 11.842 1.47582 12 1.8096 12H9.36068C9.69446 12 10.0146 11.842 10.2506 11.5607C10.4866 11.2794 10.6192 10.8978 10.6192 10.5V1.5C10.6192 1.10218 10.4866 0.720644 10.2506 0.43934C10.0146 0.158035 9.69446 0 9.36068 0L1.8096 0Z" fill="black"/>
</g>
<defs>
<clipPath id="clip0">
<rect width="10.0681" height="12" fill="white" transform="translate(0.551086)"/>
</clipPath>
</defs>
</svg>
