<svg width="20" height="16" viewBox="0 0 20 16" fill="none" xmlns="http://www.w3.org/2000/svg">
<path d="M9.08272 10.3744V4.19434C9.08272 3.93542 8.82958 3.72559 8.51723 3.72559C8.20503 3.72559 7.95174 3.93542 7.95174 4.19434V10.3744C6.95771 10.5839 6.22021 11.3319 6.22021 12.2203C6.22021 13.2704 7.25062 14.1246 8.51723 14.1246C9.78385 14.1246 10.8144 13.2704 10.8144 12.2203C10.8144 11.3319 10.0768 10.5839 9.08272 10.3744ZM8.51723 13.1871C7.87428 13.1871 7.3512 12.7534 7.3512 12.2203C7.3512 11.6871 7.87428 11.2534 8.51723 11.2534C9.16033 11.2534 9.68341 11.6871 9.68341 12.2203C9.68341 12.7534 9.16033 13.1871 8.51723 13.1871Z" fill="#1D67D5"/>
<path d="M14.7732 7.48401H13.0206C12.7082 7.48401 12.4551 7.69385 12.4551 7.95276C12.4551 8.21167 12.7082 8.42151 13.0206 8.42151H14.7732C15.0854 8.42151 15.3386 8.21167 15.3386 7.95276C15.3386 7.69385 15.0854 7.48401 14.7732 7.48401Z" fill="#1D67D5"/>
<path d="M14.7732 5.60864H13.0206C12.7082 5.60864 12.4551 5.81848 12.4551 6.07739C12.4551 6.3363 12.7082 6.54614 13.0206 6.54614H14.7732C15.0854 6.54614 15.3386 6.3363 15.3386 6.07739C15.3386 5.81848 15.0854 5.60864 14.7732 5.60864Z" fill="#1D67D5"/>
<path d="M14.7732 3.73328H13.0206C12.7082 3.73328 12.4551 3.94312 12.4551 4.20203C12.4551 4.46094 12.7082 4.67078 13.0206 4.67078H14.7732C15.0854 4.67078 15.3386 4.46094 15.3386 4.20203C15.3386 3.94312 15.0854 3.73328 14.7732 3.73328Z" fill="#1D67D5"/>
<path d="M13.0206 2.79541H14.7732C15.0854 2.79541 15.3386 2.58557 15.3386 2.32666C15.3386 2.06787 15.0854 1.85791 14.7732 1.85791H13.0206C12.7082 1.85791 12.4551 2.06787 12.4551 2.32666C12.4551 2.58557 12.7082 2.79541 13.0206 2.79541Z" fill="#1D67D5"/>
<path fill-rule="evenodd" clip-rule="evenodd" d="M11.324 2.32666V9.24146C12.4267 9.95593 13.0766 11.0515 13.0766 12.2202C13.0766 14.3044 11.0314 16 8.51748 16C6.00369 16 3.9585 14.3044 3.9585 12.2202C3.9585 11.0515 4.60837 9.95593 5.71108 9.24146V2.32666C5.71108 1.0437 6.97004 0 8.51748 0C10.0651 0 11.324 1.0437 11.324 2.32666ZM5.08948 12.2202C5.08948 13.7875 6.62721 15.0625 8.51748 15.0625C10.4078 15.0625 11.9456 13.7875 11.9456 12.2202C11.9456 11.2775 11.3831 10.3978 10.4407 9.86719C10.2858 9.77991 10.193 9.63464 10.193 9.47937V2.32666C10.193 1.56067 9.44141 0.9375 8.51748 0.9375C7.5937 0.9375 6.84206 1.56067 6.84206 2.32666V9.47937C6.84206 9.63464 6.74929 9.77991 6.59437 9.86719C5.65203 10.3978 5.08948 11.2775 5.08948 12.2202ZM8.68596 13.6C9.75199 13.6 10.6162 12.8837 10.6162 12C10.6162 11.1163 9.75199 10.4 8.68596 10.4C7.61993 10.4 6.75575 11.1163 6.75575 12C6.75575 12.8837 7.61993 13.6 8.68596 13.6Z" fill="#1D67D5"/>
</svg>
