<svg width="16" height="16" viewBox="0 0 16 16" fill="none" xmlns="http://www.w3.org/2000/svg">
<path d="M11.995 5.36996C11.7487 5.11027 11.3381 5.09883 11.078 5.34574L6.93704 9.27288L4.96191 7.24498C4.71176 6.98833 4.3016 6.9827 4.04472 7.23289C3.78807 7.48283 3.78266 7.89342 4.0326 8.15007L6.45422 10.6363C6.58113 10.7667 6.74979 10.8324 6.91888 10.8324C7.07932 10.8324 7.23976 10.7732 7.36538 10.6545L11.9708 6.28695C12.2307 6.04046 12.2417 5.62986 11.995 5.36996Z" fill="#40B53E"/>
<path d="M8 0C3.58875 0 0 3.58875 0 8C0 12.4113 3.58875 16 8 16C12.4113 16 16 12.4113 16 8C16 3.58875 12.4113 0 8 0ZM8 14.7027C4.30422 14.7027 1.29728 11.696 1.29728 8C1.29728 4.30422 4.30419 1.29728 8 1.29728C11.696 1.29728 14.7027 4.30419 14.7027 8C14.7027 11.696 11.696 14.7027 8 14.7027Z" fill="#40B53E"/>
</svg>
